<svg width="1000" height="1000" viewBox="0 0 1000 1000" xmlns="http://www.w3.org/2000/svg">
  <defs>
    <filter id="paper-texture">
      <feTurbulence type="fractalNoise" baseFrequency="0.04" numOctaves="5" result="noise"/>
      <feDiffuseLighting in="noise" lighting-color="#e2d9c3" surfaceScale="2">
        <feDistantLight azimuth="45" elevation="60"/>
      </feDiffuseLighting>
    </filter>
    <pattern id="water" width="100" height="100" patternUnits="userSpaceOnUse">
      <path d="M0 25 Q 25 0, 50 25 T 100 25" fill="none" stroke="#4a80aa" stroke-width="2" opacity="0.5"/>
      <path d="M0 75 Q 25 50, 50 75 T 100 75" fill="none" stroke="#4a80aa" stroke-width="2" opacity="0.5"/>
    </pattern>
  </defs>
  
  <!-- Paper background -->
  <rect width="100%" height="100%" filter="url(#paper-texture)"/>
  
  <!-- Water areas -->
  <path d="M0 600 Q 300 550, 600 650 T 1000 600 V 1000 H 0 Z" fill="url(#water)"/>
  <path d="M800 0 Q 900 100, 1000 150 V 0 Z" fill="url(#water)"/>
  
  <!-- Land masses -->
  <path d="M0 0 Q 400 100, 600 50 T 1000 200 V 0 Z" fill="#c2b280" stroke="#7a6a4e" stroke-width="2"/>
  <path d="M0 300 Q 200 250, 400 350 T 800 300 V 600 Q 600 550, 300 600 T 0 550 Z" fill="#c2b280" stroke="#7a6a4e" stroke-width="2"/>
  
  <!-- Mountains -->
  <g fill="#8b7355" stroke="#5d4037" stroke-width="1">
    <path d="M100 100 L 150 50 L 200 100 Z"/>
    <path d="M300 150 L 350 80 L 400 150 Z"/>
    <path d="M700 100 L 750 30 L 800 100 Z"/>
    <path d="M500 400 L 550 330 L 600 400 Z"/>
  </g>
  
  <!-- Forests -->
  <g fill="#4caf50">
    <circle cx="250" cy="200" r="30"/>
    <circle cx="650" cy="150" r="40"/>
    <circle cx="150" cy="450" r="35"/>
    <circle cx="750" cy="400" r="45"/>
  </g>
  
  <!-- Compass rose -->
  <g transform="translate(900, 900) scale(0.7)">
    <circle cx="0" cy="0" r="50" fill="#f9a825" stroke="#5d4037" stroke-width="2"/>
    <path d="M0 -60 L 15 0 L 0 60 L -15 0 Z" fill="#5d4037"/>
    <path d="M-60 0 L 0 15 L 60 0 L 0 -15 Z" fill="#5d4037"/>
  </g>
</svg>

